<?xml version="1.0" encoding="utf-8"?>
<!-- Generator: Adobe Illustrator 26.1.0, SVG Export Plug-In . SVG Version: 6.00 Build 0)  -->
<svg version="1.1" id="Layer_1" xmlns="http://www.w3.org/2000/svg" xmlns:xlink="http://www.w3.org/1999/xlink" x="0px" y="0px"
	 viewBox="0 0 390.7 450.25" style="enable-background:new 0 0 390.7 450.25;" xml:space="preserve">
<g>
	<path d="M206.48,229.21c18.47-3.32,31.73-9,41.2-15.16c-15.16-18-36.94-29.84-61.09-32.2c-15.63,8.05-33.15,12.79-51.62,12.79
		s-35.99-4.26-51.62-12.79C36.94,187.06,0,226.84,0,275.14v55.88c0,4.73,3.79,8.52,8.52,8.52h161.49
		c-0.47-3.79-0.47-7.58-0.47-11.37v-56.83C170.01,250.52,185.17,232.52,206.48,229.21L206.48,229.21z"/>
	<path d="M216.9,81.46c0,44.98-36.47,81.45-81.45,81.45c-44.99,0-81.46-36.47-81.46-81.45C53.99,36.47,90.46,0,135.45,0
		C180.43,0,216.9,36.47,216.9,81.46"/>
	<path d="M379.33,259.52c-41.2-6.63-63.93-25.1-74.82-37.89c-4.73-5.21-13.26-5.21-18,0c-11.37,12.79-33.62,31.26-74.82,37.89
		c-6.16,0.95-10.42,6.16-10.42,12.31v56.83c0,62.98,67.25,107.5,88.56,119.82c3.79,2.37,8.52,2.37,12.31,0
		c20.84-12.31,88.56-56.83,88.56-119.82v-56.83C390.23,265.67,385.49,260.46,379.33,259.52L379.33,259.52z M343.34,317.29
		l-48.3,48.31c-2.84,2.84-6.63,4.73-10.89,4.73c-4.26,0-8.05-1.42-10.89-4.73l-25.1-25.1c-6.16-6.16-6.16-16.1,0-21.79
		c6.16-6.16,16.1-6.16,21.79,0l14.21,14.21l37.41-37.41c6.16-6.16,16.1-6.16,21.78,0C349.02,301.19,349.02,311.13,343.34,317.29
		L343.34,317.29z"/>
</g>
</svg>
