<?xml version="1.0" encoding="utf-8"?>
<!-- Generator: Adobe Illustrator 26.1.0, SVG Export Plug-In . SVG Version: 6.00 Build 0)  -->
<svg version="1.1" id="Layer_1" xmlns="http://www.w3.org/2000/svg" xmlns:xlink="http://www.w3.org/1999/xlink" x="0px" y="0px"
	 viewBox="0 0 295.98 414.38" style="enable-background:new 0 0 295.98 414.38;" xml:space="preserve">
<g>
	<path d="M177.59,147.99c0,16.35-13.25,29.6-29.6,29.6c-16.34,0-29.6-13.25-29.6-29.6s13.25-29.6,29.6-29.6
		C164.34,118.39,177.59,131.64,177.59,147.99"/>
	<path d="M177.59,207.19h-14.8l-14.8,29.6l-14.8-29.6h-14.8c-16.28,0-29.6,13.32-29.6,29.6v59.2c0,16.28,13.32,29.6,29.6,29.6v74
		c0,8.14,6.66,14.8,14.8,14.8c8.14,0,14.8-6.66,14.8-14.8c0,8.14,6.66,14.8,14.8,14.8s14.8-6.66,14.8-14.8v-74
		c16.28,0,29.6-13.32,29.6-29.6v-59.2C207.19,220.51,193.87,207.19,177.59,207.19L177.59,207.19z"/>
	<path d="M147.99,59.2c-48.95,0-88.8,39.84-88.8,88.8c0,17.26,5.12,34.28,14.8,49.22c4.44,6.84,13.64,8.79,20.48,4.35
		c6.84-4.44,8.79-13.62,4.35-20.48c-6.57-10.12-10.04-21.55-10.04-33.09c0-32.65,26.55-59.2,59.2-59.2s59.2,26.55,59.2,59.2
		c0,11.54-3.46,22.97-10.04,33.09c-4.44,6.84-2.52,16.02,4.35,20.48c2.49,1.6,5.27,2.37,8.05,2.37c4.82,0,9.56-2.37,12.4-6.75
		c9.71-14.92,14.83-31.94,14.83-49.19C236.79,99.04,196.95,59.2,147.99,59.2L147.99,59.2z"/>
	<path d="M147.99,0C66.39,0,0,66.39,0,148c0,29.27,8.64,57.69,24.98,82.2c4.53,6.78,13.7,8.58,20.51,4.11
		c6.78-4.53,8.64-13.7,4.11-20.51C36.52,194.14,29.6,171.41,29.6,148c0-65.3,53.1-118.39,118.39-118.39
		c65.3,0,118.39,53.1,118.39,118.39c0,23.38-6.9,46.14-20.01,65.8c-4.53,6.78-2.7,15.98,4.11,20.51c2.52,1.69,5.39,2.49,8.2,2.49
		c4.77,0,9.47-2.31,12.31-6.6c16.34-24.54,24.98-52.95,24.98-82.2c0-81.61-66.39-148-148-148L147.99,0z"/>
</g>
</svg>
