<?xml version="1.0" encoding="utf-8"?>
<!-- Generator: Adobe Illustrator 26.1.0, SVG Export Plug-In . SVG Version: 6.00 Build 0)  -->
<svg version="1.1" id="Layer_1" xmlns="http://www.w3.org/2000/svg" xmlns:xlink="http://www.w3.org/1999/xlink" x="0px" y="0px"
	 viewBox="0 0 752 752" style="enable-background:new 0 0 752 752;" xml:space="preserve">
<style type="text/css">
	.st0{clip-path:url(#SVGID_00000061447447455907321700000003384939158212297101_);}
	.st1{clip-path:url(#SVGID_00000163042901671539056660000010775274223529904821_);}
	.st2{clip-path:url(#SVGID_00000015314395618877008910000008842314678835756985_);}
	.st3{clip-path:url(#SVGID_00000152959953476516631670000014472384969770778024_);}
</style>
<g>
	<defs>
		<rect id="SVGID_1_" x="139.21" y="298" width="473.58" height="314.79"/>
	</defs>
	<clipPath id="SVGID_00000106827927123927189380000009854452579636695202_">
		<use xlink:href="#SVGID_1_"  style="overflow:visible;"/>
	</clipPath>
	<g style="clip-path:url(#SVGID_00000106827927123927189380000009854452579636695202_);">
		<path d="M597.99,401.9h-23.64l-0.81,14.8h24.45v14.8h-41.22c0.89-2.23,1.42-4.59,1.55-6.99l0.04-0.41v-0.41l0.37-6.99l0.81-14.8
			l4.37-82.29v0c-0.01-5.67-2.27-11.11-6.29-15.11c-4.02-4-9.46-6.23-15.13-6.21H364.9c-5.67-0.02-11.12,2.21-15.14,6.21
			c-4.02,4-6.28,9.43-6.29,15.11l4.36,82.28l0.81,14.8l0.37,6.99l0,0.41l0.04,0.41v0c0.13,2.4,0.66,4.76,1.55,6.99H154.01v-14.8
			h179.85l-0.81-14.8H154.01c-3.93,0-7.69,1.56-10.47,4.34c-2.77,2.77-4.33,6.54-4.33,10.46v14.8c0,3.93,1.56,7.69,4.33,10.46
			c2.78,2.78,6.54,4.34,10.47,4.33h18.5v159.09c0,4.09,3.32,7.4,7.4,7.4c4.09,0,7.4-3.31,7.4-7.4v-114.7H409.3v114.7
			c0,4.09,3.31,7.4,7.4,7.4s7.4-3.31,7.4-7.4v-59.2h140.59v59.2l0,0c0,4.09,3.31,7.4,7.4,7.4s7.4-3.31,7.4-7.4V446.3h18.5
			c3.93,0,7.69-1.55,10.47-4.33c2.78-2.77,4.34-6.54,4.34-10.46v-14.8c0-3.93-1.56-7.69-4.34-10.46
			C605.67,403.46,601.91,401.9,597.99,401.9L597.99,401.9z M453.7,346.4c6.87,0,13.46,2.73,18.31,7.59s7.59,11.45,7.59,18.31
			c0,6.87-2.73,13.46-7.59,18.31c-4.86,4.86-11.45,7.59-18.31,7.59c-6.87,0-13.46-2.73-18.31-7.59c-4.86-4.86-7.59-11.44-7.59-18.31
			c0.01-6.87,2.74-13.45,7.59-18.3C440.25,349.14,446.83,346.41,453.7,346.4L453.7,346.4z M564.7,475.9H187.31v-29.6H564.7V475.9z"
			/>
	</g>
</g>
<path d="M173.8,387.1h71.41c-1.52-4.33-4.35-8.08-8.09-10.73c-3.74-2.65-8.22-4.07-12.81-4.07h-11.25l-29.82-55.27
	c-4.03,2.94-8.61,5.04-13.46,6.18l26.49,49.1h-1.55c-4.59,0-9.06,1.42-12.81,4.07C178.15,379.02,175.32,382.77,173.8,387.1
	L173.8,387.1z"/>
<path d="M464.8,372.3c0,6.13-4.97,11.1-11.1,11.1c-6.13,0-11.1-4.97-11.1-11.1c0-6.13,4.97-11.1,11.1-11.1
	C459.83,361.2,464.8,366.17,464.8,372.3"/>
<g>
	<defs>
		<rect id="SVGID_00000181079491763108529340000001546500617181114779_" x="542" y="139.21" width="16" height="27.79"/>
	</defs>
	<clipPath id="SVGID_00000109729205210206087540000012167965758088174761_">
		<use xlink:href="#SVGID_00000181079491763108529340000001546500617181114779_"  style="overflow:visible;"/>
	</clipPath>
	<g style="clip-path:url(#SVGID_00000109729205210206087540000012167965758088174761_);">
		<path d="M549.89,166.62c4.09,0,7.4-3.31,7.4-7.4V146.6c0-4.09-3.31-7.4-7.4-7.4s-7.4,3.31-7.4,7.4v12.61
			C542.49,163.31,545.8,166.62,549.89,166.62z"/>
	</g>
</g>
<path d="M549.89,265.01c4.09,0,7.4-3.32,7.4-7.4v-12.61c0-4.09-3.31-7.4-7.4-7.4s-7.4,3.31-7.4,7.4v12.61
	C542.49,261.69,545.8,265.01,549.89,265.01z"/>
<g>
	<defs>
		<rect id="SVGID_00000067915455858118869800000000037698679025969313_" x="585" y="194" width="27.79" height="16"/>
	</defs>
	<clipPath id="SVGID_00000060743261182640926380000010092013431056473746_">
		<use xlink:href="#SVGID_00000067915455858118869800000000037698679025969313_"  style="overflow:visible;"/>
	</clipPath>
	<g style="clip-path:url(#SVGID_00000060743261182640926380000010092013431056473746_);">
		<path d="M585.38,202.11c0,4.09,3.31,7.4,7.4,7.4h12.61c4.09,0,7.4-3.31,7.4-7.4s-3.31-7.4-7.4-7.4h-12.61
			C588.69,194.71,585.38,198.02,585.38,202.11z"/>
	</g>
</g>
<path d="M494.4,209.51h12.61c4.09,0,7.4-3.31,7.4-7.4s-3.31-7.4-7.4-7.4H494.4c-4.09,0-7.4,3.32-7.4,7.4S490.31,209.51,494.4,209.51
	L494.4,209.51z"/>
<path d="M574.99,227.2c-1.39,1.39-2.17,3.27-2.17,5.23c0,1.96,0.78,3.84,2.17,5.23l8.92,8.92c2.89,2.88,7.57,2.88,10.45-0.01
	c2.89-2.89,2.89-7.56,0.01-10.46l-8.92-8.92l0,0c-1.39-1.39-3.27-2.17-5.23-2.17C578.26,225.03,576.38,225.81,574.99,227.2
	L574.99,227.2z"/>
<path d="M514.34,177.02c1.39,1.39,3.27,2.17,5.23,2.17c1.96,0,3.84-0.78,5.23-2.17c1.39-1.39,2.16-3.27,2.16-5.23
	c0-1.96-0.78-3.85-2.17-5.23l-8.92-8.92c-2.89-2.89-7.57-2.89-10.46,0c-2.89,2.89-2.89,7.57,0,10.46L514.34,177.02z"/>
<path d="M513.41,223.16l-8.4,8.4v0c-1.39,1.39-2.17,3.27-2.17,5.23c0,1.96,0.78,3.84,2.17,5.23c1.39,1.39,3.27,2.17,5.23,2.17
	c1.96,0,3.85-0.78,5.23-2.17l8.4-8.4h0c2.88-2.89,2.87-7.57-0.01-10.45C520.98,220.29,516.3,220.28,513.41,223.16L513.41,223.16z"/>
<path d="M575.77,178.67c1.96,0,3.84-0.78,5.23-2.17l8.4-8.4c2.88-2.89,2.87-7.57-0.02-10.45c-2.88-2.88-7.56-2.89-10.45-0.02
	l-8.4,8.4c-2.11,2.12-2.75,5.3-1.6,8.06S572.78,178.67,575.77,178.67L575.77,178.67z"/>
<path d="M555.76,218.44c2.89,2.88,7.57,2.88,10.45-0.01c2.89-2.89,2.89-7.56,0.01-10.45l-8.93-8.93v-15.43c0-4.09-3.31-7.4-7.4-7.4
	s-7.4,3.31-7.4,7.4v18.5c0,1.96,0.78,3.84,2.17,5.23L555.76,218.44z"/>
<path d="M201.36,194.71h27.99l-9.45,32.91l0,0c-1.28,4.46-0.39,9.27,2.4,12.98c2.8,3.71,7.17,5.89,11.82,5.9h61.75
	c4.65,0,9.02-2.19,11.82-5.9c2.79-3.71,3.69-8.52,2.41-12.98l-15.45-53.84c-1.34-4.62-4.15-8.69-8-11.59
	c-3.85-2.9-8.53-4.47-13.34-4.49h-16.63c-4.82,0.02-9.5,1.59-13.34,4.49c-3.84,2.9-6.65,6.96-8,11.59l-1.75,6.12h-32.24
	c-2.97-0.01-5.88,0.88-8.34,2.55c-2.46,1.67-4.35,4.05-5.43,6.82l-24.05,61.03v0c5.01,0.28,9.91,1.59,14.4,3.83L201.36,194.71z"/>
<g>
	<defs>
		<rect id="SVGID_00000044894996659099759620000013310635714201192098_" x="139.21" y="265" width="44.79" height="45"/>
	</defs>
	<clipPath id="SVGID_00000026162541230229420770000000779406734015967167_">
		<use xlink:href="#SVGID_00000044894996659099759620000013310635714201192098_"  style="overflow:visible;"/>
	</clipPath>
	<g style="clip-path:url(#SVGID_00000026162541230229420770000000779406734015967167_);">
		<path d="M183.61,287.2c0,12.26-9.94,22.2-22.2,22.2c-12.26,0-22.2-9.94-22.2-22.2c0-12.26,9.94-22.2,22.2-22.2
			C173.67,265.01,183.61,274.94,183.61,287.2"/>
	</g>
</g>
</svg>
