<?xml version="1.0" encoding="utf-8"?>
<!-- Generator: Adobe Illustrator 26.1.0, SVG Export Plug-In . SVG Version: 6.00 Build 0)  -->
<svg version="1.1" id="Layer_1" xmlns="http://www.w3.org/2000/svg" xmlns:xlink="http://www.w3.org/1999/xlink" x="0px" y="0px"
	 viewBox="0 0 416.63 296.77" style="enable-background:new 0 0 416.63 296.77;" xml:space="preserve">
<style type="text/css">
	.st0{fill-rule:evenodd;clip-rule:evenodd;}
</style>
<g>
	<path class="st0" d="M30.51,128.5c4.89,0.06,9.96,1.23,15.09,3.7l88.8,42.62c4.21-9.71,14.36-16.46,25.75-16.13l50.91,1.63
		c12.48,0,21.98-3.07,33.89-6.51c11.94-3.45,26.09-7.25,45.73-7.25c16.18,0,38.04,4.93,55.79,10.95v-11.1
		c0-1.24,0.12-2.41,0.59-3.55c0.47-1.14,1.2-2.23,2.07-3.11c0.88-0.88,1.96-1.6,3.11-2.07c1.14-0.47,2.46-0.74,3.7-0.74h51.21
		c1.24,0,2.55,0.27,3.7,0.74c1.14,0.47,2.23,1.2,3.11,2.07c0.88,0.88,1.6,1.96,2.07,3.11c0.47,1.14,0.59,2.31,0.59,3.55V287.3
		c0,1.24-0.12,2.55-0.59,3.7c-0.47,1.14-1.2,2.08-2.07,2.96c-0.88,0.88-1.96,1.6-3.11,2.07c-1.14,0.47-2.46,0.74-3.7,0.74h-51.21
		c-1.24,0-2.55-0.27-3.7-0.74c-1.14-0.47-2.23-1.2-3.11-2.07c-0.88-0.88-1.6-1.82-2.07-2.96c-0.48-1.14-0.59-2.46-0.59-3.7v-12.14
		c-62.36-11.04-99.52,7.84-155.69,7.84c-11.61,0-23.83-5.71-39.07-13.62c-15.24-7.91-32.68-18.51-50.32-29.89
		c-35.27-22.77-71.31-48.82-90.13-61.57c-6.45-4.36-10.31-11.11-11.1-17.91c-0.79-6.8,1.09-13.58,4.88-19.09
		C10.27,133.36,19.75,128.36,30.51,128.5L30.51,128.5z M397.68,155.88h-8.58v121.95h8.58V155.88L397.68,155.88z"/>
	<path class="st0" d="M183.17,59.19c1.24,0.02,2.47,0.29,3.61,0.77c1.14,0.49,2.18,1.21,3.04,2.1c0.86,0.89,1.55,1.95,2.01,3.1
		s0.69,2.39,0.67,3.63v22.59h22.59c1.25-0.02,2.51,0.21,3.68,0.67c1.16,0.46,2.23,1.16,3.13,2.04s1.61,1.94,2.1,3.09
		s0.74,2.41,0.74,3.66s-0.25,2.51-0.74,3.66c-0.48,1.16-1.2,2.21-2.1,3.09c-0.89,0.88-1.96,1.58-3.13,2.04
		c-1.16,0.46-2.42,0.7-3.68,0.67H192.5v22.59c0.02,1.25-0.22,2.5-0.69,3.66s-1.17,2.22-2.05,3.11s-1.93,1.6-3.09,2.08
		c-1.15,0.48-2.4,0.73-3.65,0.73s-2.5-0.25-3.65-0.73c-1.15-0.48-2.21-1.2-3.09-2.08c-0.88-0.89-1.58-1.95-2.05-3.11
		s-0.7-2.41-0.69-3.66v-22.59h-22.59c-1.25,0.02-2.51-0.21-3.68-0.67c-1.16-0.46-2.23-1.16-3.13-2.04c-0.89-0.88-1.61-1.94-2.1-3.09
		s-0.74-2.41-0.74-3.66s0.25-2.51,0.74-3.66c0.48-1.16,1.2-2.21,2.1-3.09s1.96-1.58,3.13-2.04c1.16-0.46,2.42-0.7,3.68-0.67h22.59
		V68.8c-0.02-1.26,0.22-2.53,0.7-3.7c0.48-1.17,1.19-2.24,2.08-3.14s1.97-1.61,3.14-2.08C180.64,59.41,181.91,59.17,183.17,59.19
		L183.17,59.19z"/>
	<path class="st0" d="M144.43,0c1.24,0.02,2.47,0.29,3.61,0.77c1.14,0.49,2.18,1.21,3.04,2.1s1.55,1.95,2.01,3.1
		c0.46,1.15,0.69,2.39,0.67,3.63v9.05h9.05c1.25-0.02,2.51,0.21,3.68,0.67c1.16,0.46,2.23,1.16,3.13,2.04s1.61,1.94,2.1,3.09
		s0.74,2.41,0.74,3.66s-0.25,2.51-0.74,3.66c-0.48,1.16-1.2,2.21-2.1,3.09s-1.96,1.58-3.13,2.04c-1.16,0.46-2.42,0.7-3.68,0.67
		h-9.05v9c0.02,1.25-0.22,2.5-0.69,3.66s-1.17,2.22-2.05,3.11s-1.93,1.6-3.09,2.08c-1.15,0.48-2.4,0.73-3.65,0.73
		s-2.5-0.25-3.65-0.73c-1.15-0.48-2.21-1.2-3.09-2.08c-0.88-0.89-1.58-1.95-2.05-3.11s-0.7-2.41-0.69-3.66v-9h-9
		c-1.25,0.02-2.51-0.21-3.68-0.67c-1.16-0.46-2.23-1.16-3.13-2.04c-0.89-0.88-1.61-1.94-2.1-3.09s-0.74-2.41-0.74-3.66
		s0.25-2.51,0.74-3.66c0.48-1.16,1.2-2.21,2.1-3.09c0.89-0.88,1.96-1.58,3.13-2.04c1.16-0.46,2.42-0.7,3.68-0.67h9V9.61
		c-0.02-1.26,0.22-2.53,0.7-3.7s1.19-2.24,2.08-3.14c0.89-0.89,1.97-1.61,3.14-2.08C141.9,0.22,143.17-0.02,144.43,0L144.43,0z"/>
	<path class="st0" d="M221.91,0c1.24,0.02,2.47,0.29,3.61,0.77c1.14,0.49,2.18,1.21,3.04,2.1s1.55,1.95,2.01,3.1
		c0.46,1.15,0.69,2.39,0.67,3.63v9.05h9.05c1.25-0.02,2.51,0.21,3.68,0.67c1.16,0.46,2.23,1.16,3.13,2.04
		c0.89,0.88,1.61,1.94,2.1,3.09s0.74,2.41,0.74,3.66s-0.25,2.51-0.74,3.66c-0.48,1.16-1.2,2.21-2.1,3.09
		c-0.89,0.88-1.96,1.58-3.13,2.04c-1.16,0.46-2.42,0.7-3.68,0.67h-9.05v9c0.02,1.25-0.22,2.5-0.69,3.66s-1.17,2.22-2.05,3.11
		s-1.93,1.6-3.09,2.08c-1.15,0.48-2.4,0.73-3.65,0.73s-2.5-0.25-3.65-0.73c-1.15-0.48-2.21-1.2-3.09-2.08
		c-0.88-0.89-1.58-1.95-2.05-3.11s-0.7-2.41-0.69-3.66v-9h-9c-1.25,0.02-2.51-0.21-3.68-0.67c-1.16-0.46-2.23-1.16-3.13-2.04
		s-1.61-1.94-2.1-3.09s-0.74-2.41-0.74-3.66s0.25-2.51,0.74-3.66c0.48-1.16,1.2-2.21,2.1-3.09s1.96-1.58,3.13-2.04
		c1.16-0.46,2.42-0.7,3.68-0.67h9V9.61c-0.02-1.26,0.22-2.53,0.7-3.7s1.19-2.24,2.08-3.14c0.89-0.89,1.97-1.61,3.14-2.08
		C219.38,0.22,220.65-0.02,221.91,0L221.91,0z"/>
</g>
</svg>
