<?xml version="1.0" encoding="utf-8"?>
<!-- Generator: Adobe Illustrator 26.1.0, SVG Export Plug-In . SVG Version: 6.00 Build 0)  -->
<svg version="1.1" id="Layer_1" xmlns="http://www.w3.org/2000/svg" xmlns:xlink="http://www.w3.org/1999/xlink" x="0px" y="0px"
	 viewBox="0 0 394.64 394.64" style="enable-background:new 0 0 394.64 394.64;" xml:space="preserve">
<g>
	<path d="M197.32,0C88.48,0,0,88.48,0,197.32c0,108.77,88.48,197.32,197.32,197.32c108.77,0,197.32-88.56,197.32-197.32
		C394.64,88.48,306.08,0,197.32,0z M314.77,314.14c-0.08,0.08-0.16,0.24-0.24,0.39c-0.16,0.08-0.32,0.16-0.47,0.24
		c-29.99,29.84-71.27,48.3-116.74,48.3c-45.54,0-86.82-18.47-116.82-48.3c-0.16-0.08-0.32-0.16-0.39-0.24
		c-0.16-0.16-0.16-0.32-0.32-0.47c-29.75-29.99-48.22-71.2-48.22-116.74c0-22.73,4.58-44.52,12.95-64.25
		c8.37-19.73,20.36-37.57,35.28-52.57c0.16-0.08,0.16-0.24,0.32-0.39c0.08-0.16,0.32-0.16,0.39-0.32
		c29.99-29.75,71.27-48.22,116.81-48.22c45.46,0,86.75,18.47,116.74,48.3c0.16,0.08,0.32,0.08,0.47,0.24
		c0.08,0.08,0.16,0.32,0.24,0.39c29.84,29.99,48.31,71.27,48.31,116.81S344.6,284.14,314.77,314.14L314.77,314.14z"/>
	<path d="M327.64,189.43h19.26c-1.89-35.44-16.02-67.48-38.28-92.27l-13.57,13.57c-1.5,1.5-3.55,2.29-5.52,2.29
		c-2.05,0-4.03-0.79-5.61-2.29c-3.08-3.08-3.08-8.13,0-11.21l13.57-13.5c-24.79-22.34-56.91-36.46-92.27-38.28v19.18
		c0,4.34-3.55,7.89-7.89,7.89c-4.42,0-7.89-3.55-7.89-7.89V47.75c-35.44,1.82-67.56,15.95-92.27,38.28l13.5,13.5
		c3.16,3.08,3.16,8.13,0,11.21c-1.5,1.5-3.55,2.29-5.52,2.29c-2.05,0-4.03-0.79-5.61-2.29L85.95,97.16
		c-22.26,24.79-36.39,56.83-38.2,92.27h19.18c4.34,0,7.89,3.55,7.89,7.89c0,4.34-3.55,7.89-7.89,7.89H47.75
		c1.82,35.36,15.95,67.48,38.2,92.27l13.57-13.57c3.08-3.08,8.05-3.08,11.13,0c3.16,3.08,3.16,8.05,0,11.13l-13.5,13.57
		c24.71,22.26,56.83,36.39,92.27,38.28v-19.18c0-4.42,3.47-7.89,7.89-7.89c4.34,0,7.89,3.47,7.89,7.89v19.18
		c35.36-1.89,67.48-16.02,92.19-38.28l-13.5-13.5c-3.08-3.08-3.08-8.13,0-11.21s8.05-3.08,11.13,0l13.57,13.57
		c22.26-24.79,36.39-56.91,38.28-92.27h-19.26c-4.34,0-7.89-3.55-7.89-7.89S323.3,189.43,327.64,189.43L327.64,189.43z
		 M258.81,205.21h-61.49c-2.92,0-5.52-1.58-6.95-4.11l-42.23-75.93c-2.13-3.79-0.79-8.6,3.08-10.73c3.79-2.13,8.6-0.71,10.73,3.08
		l40.02,71.91h56.83c4.34,0,7.89,3.55,7.89,7.89C266.71,201.66,263.15,205.21,258.81,205.21L258.81,205.21z"/>
</g>
</svg>
