<?xml version="1.0" encoding="utf-8"?>
<!-- Generator: Adobe Illustrator 26.1.0, SVG Export Plug-In . SVG Version: 6.00 Build 0)  -->
<svg version="1.1" id="Layer_1" xmlns="http://www.w3.org/2000/svg" xmlns:xlink="http://www.w3.org/1999/xlink" x="0px" y="0px"
	 viewBox="0 0 393.08 422.9" style="enable-background:new 0 0 393.08 422.9;" xml:space="preserve">
<g>
	<path d="M72.46,207.9c-1.89,7.58-12.79,31.26-12.79,31.26l-13.26-19.42l13.26-20.84c0,0,3.79-6.63,10.89-2.84
		C73.88,197.95,72.46,205.05,72.46,207.9L72.46,207.9z"/>
	<path d="M146.34,358.02h0.95c0-22.26-0.47-50.67-4.26-63.93c-6.15-19.89-41.2-71.51-41.2-71.51s-9.95-14.21-18.47-11.84
		c-8.52,1.42-8.05,13.73-8.05,19.42c0,10.89,6.63,43.57,6.63,43.57l-16.1-14.21c-0.47-1.89-29.36-40.73-29.36-40.73
		s-6.63-53.99-13.73-71.04c-1.89-4.73-6.16-14.21-14.21-13.26C0,134.96,0,151.54,0,151.54l2.84,77.2c0,0.95,0,1.89,0.47,2.37
		l12.79,60.62c1.42,6.16,3.79,10.89,6.63,16.1l36.47,50.2L146.34,358.02z"/>
	<path d="M146.34,367.49H57.78c-5.68,0-9.47,4.26-9.47,9.47v35.99c0,5.68,4.26,9.47,9.47,9.47h88.56c5.68,0,9.47-4.26,9.47-9.47
		v-35.99C156.28,371.75,151.55,367.49,146.34,367.49z M65.83,403.48c-4.73,0-8.05-3.79-8.05-8.05c0-4.26,3.79-8.05,8.05-8.05
		c4.73,0,8.05,3.79,8.05,8.05C73.41,399.69,70.09,403.48,65.83,403.48z"/>
	<path d="M324.41,196.06c7.11-3.79,10.89,2.84,10.89,2.84l13.26,20.84l-13.26,18.94c0,0-10.89-23.21-12.79-31.26
		C321.57,205.05,319.67,197.95,324.41,196.06L324.41,196.06z"/>
	<path d="M328.2,160.54c-0.47-4.73-2.37-14.21,4.73-17.52c7.11-2.37,10.89,4.26,10.89,4.26s13.26,29.36,14.21,31.26
		c0.95,1.89-6.63,32.2-6.63,34.1C351.4,213.11,329.62,175.22,328.2,160.54L328.2,160.54z"/>
	<path d="M247.22,358.02h-0.95c0-22.26,0.47-50.67,4.26-63.93c6.16-19.89,41.2-71.51,41.2-71.51s9.95-14.21,18.47-11.84
		c8.52,1.42,8.05,13.73,8.05,19.42c0,10.89-6.63,43.57-6.63,43.57l16.1-14.21c0.47-1.89,29.36-40.73,29.36-40.73
		s6.63-53.99,13.73-71.04c1.89-4.73,6.16-14.21,14.21-13.26c8.05,0.95,8.05,17.52,8.05,17.52l-2.84,77.2c0,0.95,0,1.89-0.47,2.37
		l-12.78,60.62c-1.42,6.16-3.79,10.89-6.63,16.1l-36.48,50.2C333.41,358.02,247.22,358.02,247.22,358.02L247.22,358.02z"/>
	<path d="M237.74,377.44v35.99c0,5.68,4.26,9.47,9.47,9.47h88.09c5.68,0,9.47-4.26,9.47-9.47v-35.99c0-5.68-4.26-9.47-9.47-9.47
		l-88.09,0C242.47,367.49,237.74,371.76,237.74,377.44L237.74,377.44z M320.61,395.43c0-4.73,3.79-8.05,8.05-8.05
		c4.73,0,8.05,3.79,8.05,8.05c0,4.73-3.79,8.05-8.05,8.05S320.61,399.7,320.61,395.43z"/>
	<path d="M192.28,183.75l-57.3,29.84c-5.68,2.84-12.31-1.89-10.89-8.05l10.89-63.93c0.47-2.37-0.47-4.73-2.37-6.63L86.2,89.51
		c-4.73-4.26-1.89-12.31,4.26-12.79l64.88-9.47c2.37-0.47,4.73-1.89,5.68-4.26l28.89-58.72c2.84-5.68,10.89-5.68,13.73,0
		l28.89,58.72c0.95,2.37,3.32,3.79,5.68,4.26l64.41,9.47c6.16,0.95,9,8.52,4.26,13.26l-47.83,45.46c-1.89,1.89-2.84,4.26-2.37,6.63
		l11.37,63.93c0.95,6.16-5.21,10.89-10.89,8.05l-57.78-29.84C197.01,182.8,194.64,182.8,192.28,183.75L192.28,183.75z"/>
</g>
</svg>
