<?xml version="1.0" encoding="utf-8"?>
<!-- Generator: Adobe Illustrator 26.1.0, SVG Export Plug-In . SVG Version: 6.00 Build 0)  -->
<svg version="1.1" id="Layer_1" xmlns="http://www.w3.org/2000/svg" xmlns:xlink="http://www.w3.org/1999/xlink" x="0px" y="0px"
	 viewBox="0 0 446.02 437.07" style="enable-background:new 0 0 446.02 437.07;" xml:space="preserve">
<path d="M9.65,239.94l8.52,7.58c4.57,4.04,7.75,9.42,9.09,15.37c1.34,5.95,0.78,12.17-1.61,17.78l-4.45,10.51v0
	c-3.25,7.69-3.03,16.41,0.59,23.93c3.62,7.52,10.31,13.12,18.35,15.38l10.99,3.12h0c5.85,1.67,11.03,5.13,14.81,9.89
	c3.78,4.77,5.97,10.6,6.26,16.68l0.57,11.41h0c0.35,7.45,3.56,14.49,8.95,19.65s12.57,8.04,20.03,8.06
	c1.62-0.07,3.24-0.28,4.83-0.62l11.27-1.94h0c5.99-1.03,12.16-0.15,17.63,2.51c5.47,2.66,9.97,6.96,12.86,12.32l5.45,10.04
	c3.96,7.39,10.92,12.71,19.09,14.59s16.75,0.14,23.54-4.78l9.47-6.63l0,0c4.95-3.54,10.88-5.45,16.96-5.45s12.01,1.91,16.95,5.45
	l9.47,6.68v0c6.75,4.94,15.29,6.74,23.46,4.92c8.16-1.81,15.15-7.06,19.16-14.4l5.49-10.04c2.9-5.18,7.32-9.35,12.67-11.94
	c5.34-2.59,11.35-3.48,17.21-2.55l11.27,1.99h0c1.7,0.31,3.43,0.47,5.16,0.48c7.43-0.02,14.58-2.88,19.97-7.99s8.62-12.1,9.02-19.52
	l0.66-11.6c0.32-6.08,2.54-11.9,6.35-16.65c3.8-4.75,9-8.19,14.87-9.82l11.03-3.08c8.02-2.26,14.68-7.84,18.3-15.34
	c3.62-7.5,3.86-16.19,0.64-23.87l-4.41-10.56h0c-2.37-5.62-2.91-11.86-1.54-17.8c1.37-5.95,4.58-11.32,9.17-15.34l8.43-7.25
	c6.24-5.52,9.82-13.45,9.82-21.79s-3.57-16.27-9.82-21.79l-8.52-7.58c-4.57-4.04-7.75-9.42-9.09-15.37
	c-1.34-5.95-0.78-12.17,1.61-17.78l4.45-10.51v0c3.25-7.69,3.03-16.41-0.59-23.93c-3.62-7.52-10.31-13.12-18.35-15.38l-10.99-3.12h0
	c-5.85-1.67-11.03-5.12-14.81-9.89c-3.78-4.77-5.97-10.6-6.26-16.68l-0.52-11.41h0c-0.35-7.45-3.56-14.49-8.95-19.65
	c-5.39-5.16-12.57-8.04-20.03-8.06c-1.53,0.09-3.05,0.29-4.54,0.61l-11.27,1.94h0c-1.56,0.27-3.15,0.42-4.73,0.43
	c-5.24,0-10.39-1.42-14.89-4.11c-4.5-2.68-8.2-6.54-10.69-11.15l-5.64-10.18c-3.97-7.38-10.93-12.68-19.09-14.56
	C265.13-0.73,256.55,1,249.76,5.9l-9.47,6.63c-4.94,3.55-10.87,5.45-16.95,5.45s-12.01-1.91-16.95-5.45l-8.95-6.91
	c-6.74-4.95-15.29-6.74-23.46-4.93c-8.16,1.82-15.15,7.06-19.16,14.4l-5.4,10.27c-2.92,5.32-7.43,9.59-12.9,12.21
	c-5.47,2.62-11.62,3.47-17.6,2.43l-11.27-2.04v0c-1.7-0.31-3.43-0.46-5.16-0.47c-7.43,0.02-14.57,2.87-19.96,7.99
	c-5.39,5.12-8.62,12.1-9.02,19.53l-0.66,11.65c-0.32,6.08-2.54,11.9-6.35,16.65c-3.8,4.75-9.01,8.18-14.87,9.82l-11.04,3.08v0
	c-8.02,2.25-14.68,7.84-18.3,15.34c-3.62,7.5-3.86,16.19-0.64,23.87l4.41,10.56v0c2.37,5.63,2.91,11.86,1.54,17.81
	c-1.37,5.95-4.57,11.32-9.16,15.34l-8.43,7.25C3.7,201.85,0.06,209.75,0,218.08S3.45,234.38,9.65,239.94L9.65,239.94z
	 M133.73,195.52c-0.01-2.34,0.92-4.59,2.59-6.24c1.66-1.65,3.93-2.56,6.27-2.52h31.59l39.88-84.68h0
	c1.55-6.46,7.62-10.79,14.23-10.14s11.73,6.06,12,12.69l-9.47,69.33h82.74c4.52-0.07,8.89,1.62,12.2,4.7
	c3.31,3.08,5.3,7.32,5.56,11.84c0.14,4.61-1.59,9.08-4.8,12.39c-3.21,3.31-7.63,5.18-12.25,5.18h-4.73c2.87,1.63,5.2,4.06,6.71,7
	s2.14,6.25,1.81,9.53c-0.52,4.26-2.6,8.18-5.84,11c-3.23,2.82-7.39,4.35-11.68,4.3h-4.03c2.93,1.62,5.31,4.08,6.85,7.05
	c1.54,2.97,2.17,6.34,1.82,9.66c-0.53,4.26-2.61,8.18-5.84,11c-3.23,2.82-7.39,4.35-11.69,4.3h-4.03c2.88,1.63,5.21,4.06,6.72,7
	c1.52,2.93,2.14,6.25,1.8,9.53c-0.53,4.26-2.61,8.18-5.84,11c-3.23,2.82-7.39,4.36-11.69,4.3l-132.04,1.18
	c-4.81,0-8.71-3.9-8.71-8.71L133.73,195.52z"/>
</svg>
